<svg width="35" height="24" viewBox="0 0 35 24" fill="none" xmlns="http://www.w3.org/2000/svg">
<rect width="35" height="24" rx="4" fill="#F7F7F7"/>
<path fill-rule="evenodd" clip-rule="evenodd" d="M8.34621 8.93296C8.81625 8.97261 9.28629 8.69506 9.58007 8.34316C9.86895 7.98135 10.0599 7.49563 10.0109 7C9.59476 7.01983 9.08065 7.27755 8.78687 7.63936C8.51758 7.95161 8.28746 8.45715 8.34621 8.93296ZM13.9377 15.3167V7.5898H16.8021C18.2807 7.5898 19.3138 8.62071 19.3138 10.1274C19.3138 11.6341 18.2611 12.675 16.7629 12.675H15.1226V15.3167H13.9377ZM10.006 9.02712C9.59191 9.003 9.21406 9.15319 8.90886 9.2745C8.71246 9.35256 8.54615 9.41867 8.41962 9.41867C8.27763 9.41867 8.10445 9.34903 7.91001 9.27084L7.91001 9.27084L7.91 9.27084L7.91 9.27083C7.65521 9.16838 7.36392 9.05124 7.05845 9.05686C6.35829 9.06677 5.70709 9.46823 5.34966 10.1076C4.61522 11.3863 5.1587 13.2796 5.86866 14.3205C6.2163 14.8359 6.63248 15.4009 7.18086 15.3811C7.42212 15.3719 7.59566 15.2973 7.77526 15.2202C7.98203 15.1314 8.19683 15.0391 8.53223 15.0391C8.856 15.0391 9.0614 15.129 9.25858 15.2152C9.44606 15.2973 9.62611 15.376 9.89339 15.3712C10.4614 15.3613 10.8188 14.8557 11.1664 14.3403C11.5416 13.7871 11.7064 13.2471 11.7315 13.1652L11.7344 13.1557C11.7338 13.1551 11.7292 13.153 11.721 13.1492C11.5956 13.0911 10.637 12.6469 10.6278 11.4557C10.6186 10.4559 11.3881 9.94935 11.5093 9.86961L11.5093 9.86961C11.5166 9.86476 11.5216 9.86149 11.5238 9.85978C11.0342 9.12625 10.2704 9.04695 10.006 9.02712ZM21.478 15.3761C22.2223 15.3761 22.9126 14.9945 23.226 14.3898H23.2505V15.3167H24.3472V11.4706C24.3472 10.3554 23.4659 9.63675 22.1097 9.63675C20.8513 9.63675 19.921 10.3653 19.8868 11.3665H20.9541C21.0423 10.8907 21.478 10.5784 22.0754 10.5784C22.8 10.5784 23.2064 10.9204 23.2064 11.5499V11.9761L21.7277 12.0653C20.3519 12.1496 19.6077 12.7196 19.6077 13.7108C19.6077 14.712 20.3764 15.3761 21.478 15.3761ZM21.7962 14.4592C21.1646 14.4592 20.7631 14.1519 20.7631 13.6811C20.7631 13.1954 21.1499 12.9129 21.8892 12.8683L23.2063 12.784V13.2202C23.2063 13.9438 22.5992 14.4592 21.7962 14.4592ZM27.9851 15.619C27.5102 16.9721 26.9667 17.4181 25.8112 17.4181C25.723 17.4181 25.4293 17.4082 25.3607 17.3884V16.4616C25.4342 16.4715 25.6153 16.4814 25.7084 16.4814C26.2323 16.4814 26.526 16.2584 26.7072 15.6785L26.8149 15.3365L24.8074 9.7111H26.0462L27.4416 14.2759H27.4661L28.8616 9.7111H30.066L27.9851 15.619ZM15.1225 8.60088H16.4886C17.5168 8.60088 18.1044 9.15599 18.1044 10.1324C18.1044 11.1088 17.5168 11.6688 16.4837 11.6688H15.1225V8.60088Z" fill="black"/>
</svg>
