<svg width="35" height="24" viewBox="0 0 35 24" fill="none" xmlns="http://www.w3.org/2000/svg">
<rect width="35" height="24" rx="4" fill="#FFF8EF"/>
<path fill-rule="evenodd" clip-rule="evenodd" d="M25.6269 12.0646C25.6269 16.5185 22.0165 20.1292 17.5627 20.1292C13.109 20.1292 9.49854 16.5185 9.49854 12.0646C9.49854 7.61064 13.109 4 17.5627 4C22.0165 4 25.6269 7.61064 25.6269 12.0646ZM19.5001 9.06831C20.6219 9.45354 21.4424 10.0304 21.2815 11.1039C21.1645 11.89 20.7272 12.2701 20.146 12.4033C20.9433 12.8167 21.215 13.6014 20.9626 14.5503C20.4832 15.9157 19.3437 16.0307 17.8281 15.7453L17.4601 17.2131L16.5717 16.9922L16.9347 15.5441C16.7043 15.4871 16.4689 15.4261 16.2265 15.361L15.862 16.8162L14.9746 16.5954L15.3421 15.1246L13.5527 14.6748L13.9941 13.6613C13.9941 13.6613 14.6491 13.8343 14.64 13.8216C14.8916 13.8837 15.0035 13.7203 15.0475 13.6119L16.0447 9.628C16.0559 9.43992 15.9906 9.20294 15.6307 9.11319C15.6443 9.10361 14.9852 8.95335 14.9852 8.95335L15.2216 8.00792L17.0136 8.45013L17.3781 6.99594L18.266 7.21679L17.9091 8.64224C18.148 8.69619 18.388 8.75115 18.6213 8.80914L18.9757 7.39277L19.8641 7.61362L19.5001 9.06831ZM17.3744 11.4941C17.9796 11.6546 19.2964 12.0037 19.5259 11.0883C19.7601 10.1517 18.4807 9.8688 17.8543 9.7303L17.8543 9.73029L17.8542 9.73027C17.7833 9.71459 17.7207 9.70075 17.6697 9.68803L17.2272 11.4558C17.2694 11.4663 17.3189 11.4794 17.3744 11.4941ZM16.6887 14.3404C17.4136 14.5313 18.9988 14.9489 19.2511 13.9402C19.5092 12.9088 17.9722 12.5652 17.2223 12.3976L17.2222 12.3976C17.1385 12.3789 17.0645 12.3623 17.004 12.3473L16.516 14.2956C16.5656 14.3079 16.6237 14.3232 16.6887 14.3403L16.6887 14.3404Z" fill="#F7931A"/>
</svg>
