<svg width="35" height="24" viewBox="0 0 35 24" fill="none" xmlns="http://www.w3.org/2000/svg">
<rect width="35" height="24" rx="4" fill="#F3FBFF"/>
<path d="M15.2356 17.7686L15.4501 16.4061L14.9723 16.395H12.6907L14.2763 6.34088C14.2812 6.31052 14.2972 6.28222 14.3206 6.26213C14.344 6.24203 14.374 6.23096 14.4051 6.23096H18.2523C19.5296 6.23096 20.411 6.49674 20.8712 7.02132C21.0869 7.26742 21.2243 7.52458 21.2908 7.80759C21.3605 8.10455 21.3618 8.45933 21.2936 8.89205L21.2887 8.92363V9.20089L21.5045 9.32312C21.6862 9.4195 21.8305 9.52983 21.9412 9.65617C22.1259 9.86657 22.2453 10.134 22.2957 10.451C22.3477 10.7771 22.3305 11.1651 22.2453 11.6044C22.1468 12.1097 21.9876 12.5498 21.7728 12.9099C21.575 13.2417 21.3231 13.5169 21.0242 13.7302C20.7387 13.9328 20.3995 14.0867 20.016 14.1852C19.6444 14.2819 19.2207 14.3307 18.756 14.3307H18.4566C18.2425 14.3307 18.0345 14.4078 17.8713 14.5461C17.7077 14.6872 17.5993 14.8799 17.5661 15.0907L17.5436 15.2134L17.1646 17.6148L17.1474 17.703C17.1429 17.7309 17.1351 17.7449 17.1236 17.7543C17.1133 17.7628 17.0986 17.7686 17.0842 17.7686H15.2356Z" fill="#253B80"/>
<path d="M21.7078 8.9563C21.6964 9.02971 21.6833 9.10477 21.6685 9.18188C21.161 11.7868 19.4253 12.6867 17.2084 12.6867H16.0797C15.8086 12.6867 15.5801 12.8835 15.5379 13.1509L14.9599 16.8161L14.7963 17.855C14.7688 18.0306 14.9042 18.1889 15.0813 18.1889H17.0834C17.3204 18.1889 17.5217 18.0166 17.5591 17.7829L17.5788 17.6811L17.9558 15.2891L17.98 15.1579C18.0168 14.9233 18.2186 14.751 18.4557 14.751H18.7551C20.6947 14.751 22.2131 13.9635 22.657 11.6847C22.8423 10.7327 22.7463 9.9378 22.2558 9.37875C22.1073 9.21018 21.9232 9.07032 21.7078 8.9563Z" fill="#179BD7"/>
<path d="M21.1761 8.74412C21.0986 8.72156 21.0186 8.70105 20.9365 8.68259C20.8541 8.66455 20.7696 8.64855 20.6827 8.63461C20.3783 8.58539 20.0449 8.56201 19.6876 8.56201H16.6722C16.5979 8.56201 16.5274 8.57882 16.4643 8.60918C16.3252 8.67603 16.2219 8.8077 16.1969 8.96888L15.5553 13.0319L15.5369 13.1504C15.5791 12.883 15.8076 12.6861 16.0787 12.6861H17.2074C19.4243 12.6861 21.1602 11.7858 21.6675 9.18134C21.6826 9.10423 21.6954 9.02918 21.7068 8.95577C21.5785 8.88768 21.4394 8.82943 21.2897 8.7798C21.2528 8.7675 21.2147 8.75561 21.1761 8.74412Z" fill="#222D65"/>
<path d="M16.1986 8.96907C16.2236 8.80787 16.327 8.67621 16.466 8.60976C16.5296 8.57941 16.5997 8.5626 16.6739 8.5626H19.6894C20.0467 8.5626 20.3801 8.58597 20.6844 8.6352C20.7714 8.64914 20.8559 8.66514 20.9384 8.68318C21.0204 8.70164 21.1003 8.72215 21.1779 8.7447C21.2164 8.75619 21.2545 8.76808 21.2918 8.77998C21.4416 8.82961 21.5806 8.88826 21.709 8.95594C21.86 7.9933 21.7078 7.33787 21.1874 6.74438C20.6136 6.091 19.5779 5.81128 18.2527 5.81128H14.4054C14.1346 5.81128 13.9038 6.00814 13.8619 6.27598L12.2595 16.4335C12.2278 16.6344 12.3829 16.8158 12.5855 16.8158H14.9607L15.5571 13.0321L16.1986 8.96907Z" fill="#253B80"/>
</svg>
