<svg width="598" height="595" viewBox="0 0 598 595" fill="none" xmlns="http://www.w3.org/2000/svg">
<path fill-rule="evenodd" clip-rule="evenodd" d="M284.577 4.0822C345.611 6.85716 410.53 6.69025 458.855 44.0608C506.558 80.9514 517.101 145.051 539.335 201.093C563.417 261.796 612.581 321.722 593.829 384.276C575.033 446.975 501.797 471.417 447.384 507.827C395.44 542.585 346.569 583.206 284.577 591.21C216.807 599.96 142.225 595.85 88.0471 554.224C34.3705 512.982 15.2397 441.79 3.38747 375.161C-7.20295 315.626 9.00217 257.842 24.9489 199.512C41.7873 137.92 47.3604 66.0811 98.3869 27.6721C149.615 -10.8891 220.514 1.16958 284.577 4.0822Z" fill="#F5F5FF"/>
</svg>
