<svg width="32" height="32" viewBox="0 0 32 32" fill="none" xmlns="http://www.w3.org/2000/svg">
<path d="M0 16C0 7.16344 7.16344 0 16 0V0C24.8366 0 32 7.16344 32 16V16C32 24.8366 24.8366 32 16 32V32C7.16344 32 0 24.8366 0 16V16Z" fill="#FF4D4F"/>
<path d="M17.75 6C13.7719 8.4558 14.25 15.375 14.25 15.375C14.25 15.375 12.5 14.75 12.5 11.9375C10.4121 13.2346 9 15.7278 9 18.5C9 22.6421 12.134 26 16 26C19.866 26 23 22.6421 23 18.5C23 12.4063 17.75 11.1562 17.75 6ZM16.6149 23.4157C15.2082 23.7915 13.7836 22.8744 13.4328 21.3672C13.0821 19.8601 13.9381 18.3336 15.3448 17.9578C18.7408 17.0506 19.1664 15.0045 19.1664 15.0045C19.1664 15.0045 20.8599 22.2817 16.6149 23.4157Z" fill="white"/>
</svg>
