<svg width="80" height="80" viewBox="0 0 80 80" fill="none" xmlns="http://www.w3.org/2000/svg">
<rect width="80" height="80" rx="40" fill="#F5F5FF"/>
<path d="M46.1644 31C46.6947 31 47.1332 31.1838 47.4799 31.5514C47.8266 31.9189 48 32.3946 48 32.9784V46.6973C48 47.2595 47.8266 47.7351 47.4799 48.1243C47.1332 48.4919 46.6947 48.6757 46.1644 48.6757C45.6342 48.6757 45.1957 48.4919 44.8489 48.1243C44.5226 47.7568 44.3493 47.2919 44.3289 46.7297C43.819 47.3568 43.1256 47.8973 42.2486 48.3514C41.392 48.7838 40.4844 49 39.5258 49C38.1185 49 36.8438 48.6216 35.7017 47.8649C34.5596 47.0865 33.652 46.0162 32.979 44.6541C32.3263 43.2919 32 41.7459 32 40.0162C32 38.2865 32.3263 36.7405 32.979 35.3784C33.6316 33.9946 34.5188 32.9243 35.6405 32.1676C36.7827 31.3892 38.037 31 39.4034 31C40.3824 31 41.3002 31.1946 42.1568 31.5838C43.0134 31.9514 43.7374 32.427 44.3289 33.0108V32.9784C44.3289 32.4162 44.5022 31.9514 44.8489 31.5838C45.1957 31.1946 45.6342 31 46.1644 31ZM39.9847 45.4324C41.3104 45.4324 42.3913 44.9243 43.2275 43.9081C44.0637 42.8703 44.4818 41.573 44.4818 40.0162C44.4818 38.4595 44.0637 37.1622 43.2275 36.1243C42.3913 35.0865 41.3104 34.5676 39.9847 34.5676C38.6794 34.5676 37.6087 35.0865 36.7725 36.1243C35.9363 37.1622 35.5182 38.4595 35.5182 40.0162C35.5182 41.573 35.9261 42.8703 36.7419 43.9081C37.5781 44.9243 38.659 45.4324 39.9847 45.4324Z" fill="#5243C2"/>
</svg>
