<svg width="32" height="32" viewBox="0 0 32 32" fill="none" xmlns="http://www.w3.org/2000/svg">
<path d="M0 16C0 7.16344 7.16344 0 16 0V0C24.8366 0 32 7.16344 32 16V16C32 24.8366 24.8366 32 16 32V32C7.16344 32 0 24.8366 0 16V16Z" fill="#B956F5"/>
<path d="M16 8C11.5886 8 8 11.5886 8 16C8 20.4114 11.5886 24 16 24C20.4114 24 24 20.4114 24 16C24 11.5886 20.4114 8 16 8ZM19.8047 20.1379C19.6747 20.2679 19.504 20.3334 19.3334 20.3334C19.1627 20.3334 18.9919 20.2679 18.8621 20.1379L15.5287 16.8047C15.4033 16.6801 15.3334 16.5106 15.3334 16.3334V12C15.3334 11.6313 15.632 11.3334 16 11.3334C16.368 11.3334 16.6666 11.6313 16.6666 12V16.0574L19.8047 19.1953C20.0653 19.4561 20.0653 19.8773 19.8047 20.1379V20.1379Z" fill="white"/>
</svg>
