<svg width="32" height="32" viewBox="0 0 32 32" fill="none" xmlns="http://www.w3.org/2000/svg">
<path d="M0 16C0 7.16344 7.16344 0 16 0V0C24.8366 0 32 7.16344 32 16V16C32 24.8366 24.8366 32 16 32V32C7.16344 32 0 24.8366 0 16V16Z" fill="#F58F56"/>
<g clip-path="url(#clip0_964_5857)">
<path d="M23.4414 9.52534C23.0321 9.04789 22.4865 8.77503 21.8726 8.84326H10.0725C8.84471 8.84326 7.82158 10.0028 8.0262 11.2306L9.66322 21.4619C9.79964 22.485 10.6863 23.1671 11.7095 23.1671H20.3038C21.3269 23.1671 22.2136 22.4168 22.3501 21.4619L23.9871 11.2306C24.0553 10.6167 23.8506 10.0028 23.4414 9.52534ZM17.439 17.7104C17.2344 17.5058 17.0298 17.3693 16.7569 17.3011L17.3026 14.5728L15.9384 14.3L15.3246 17.2329C15.0517 17.3011 14.7789 17.5058 14.5061 17.7104L11.0956 14.3682C13.7557 11.708 18.0529 11.708 20.713 14.3682L17.439 17.7104Z" fill="white"/>
</g>
<defs>
<clipPath id="clip0_964_5857">
<rect width="16" height="16" fill="white" transform="translate(8 8)"/>
</clipPath>
</defs>
</svg>
